{"glyphs":{" ":{"ha":694,"x_min":0,"x_max":0,"o":""},"A":{"ha":1413,"x_min":0,"x_max":1389,"o":"m 1300 85 q 1019 -194 1201 -99 q 692 -275 865 -275 q 199 -67 401 -275 q 0 418 0 136 q 47 667 0 542 q 217 921 106 817 l 454 142 l 608 529 l 704 60 l 868 479 l 951 85 l 1300 85 m 1389 418 q 1336 156 1389 279 l 1007 156 l 892 733 l 726 311 l 631 788 l 464 360 l 278 974 q 699 1114 464 1114 q 886 1083 783 1114 q 1267 807 1128 1011 q 1389 418 1389 628 z "},"B":{"ha":1407,"x_min":0,"x_max":1389,"o":"m 1332 463 q 971 650 1099 589 q 826 676 915 676 q 747 667 785 676 q 689 650 718 658 q 528 557 610 628 q 438 468 490 519 q 115 368 317 368 q 107 368 114 368 q 96 368 100 368 q 57 369 68 368 q 381 196 274 246 q 478 161 439 168 q 565 156 507 156 l 586 156 q 707 183 624 156 q 813 233 760 200 q 893 303 842 251 q 958 365 957 364 q 1006 394 958 365 q 1107 438 1049 421 q 1279 464 1210 464 q 1303 464 1282 464 q 1332 463 1322 463 m 1389 418 q 1185 -72 1389 131 q 694 -275 981 -275 q 203 -71 406 -275 q 0 418 0 133 q 203 907 0 700 q 693 1114 406 1114 q 1184 909 979 1114 q 1389 418 1389 704 z "},"C":{"ha":1404,"x_min":0,"x_max":1388,"o":"m 663 -275 l 631 -275 q 463 -236 583 -275 q 281 -140 381 -210 q 108 40 175 -64 q 36 196 68 104 q 0 369 0 299 l 0 390 l 444 390 l 663 169 l 663 -275 m 663 664 l 447 447 l 0 447 l 0 468 q 22 590 0 469 q 153 846 43 710 q 394 1043 267 989 q 500 1083 476 1078 q 563 1099 532 1090 q 647 1113 622 1113 l 663 1113 l 663 664 m 1388 381 q 1353 199 1388 304 q 1113 -137 1282 -4 q 946 -232 1051 -186 q 861 -256 925 -240 q 751 -275 786 -275 l 719 -275 l 719 167 l 944 390 l 1388 390 l 1388 381 m 1388 447 l 939 447 l 719 669 l 719 1114 l 735 1114 q 946 1067 819 1114 q 1006 1038 965 1057 q 1250 826 1139 982 q 1372 560 1350 688 q 1388 447 1385 489 z "},"D":{"ha":1413,"x_min":0,"x_max":1389,"o":"m 507 418 q 464 524 507 481 q 357 567 421 567 q 253 524 296 567 q 210 418 210 481 q 251 314 210 358 q 358 269 293 269 q 464 313 421 269 q 507 418 507 356 m 844 82 q 800 185 844 138 q 694 232 756 232 q 590 188 635 232 q 544 82 544 143 q 588 -22 544 21 q 694 -65 631 -65 q 799 -24 754 -65 q 844 82 844 17 m 844 754 q 801 858 844 813 q 694 904 757 904 q 590 860 635 904 q 544 754 544 815 q 588 649 544 692 q 694 606 631 606 q 798 647 751 606 q 844 754 844 689 m 1185 418 q 1143 522 1185 478 q 1038 567 1101 567 q 931 524 975 567 q 888 418 888 481 q 930 315 888 360 q 1036 269 972 269 q 1142 313 1099 269 q 1185 418 1185 356 m 1389 418 q 1185 -72 1389 131 q 694 -275 981 -275 q 203 -71 406 -275 q 0 418 0 133 q 205 909 0 704 q 694 1114 410 1114 q 1185 908 982 1114 q 1389 418 1389 701 z "},"E":{"ha":1768,"x_min":0,"x_max":1754,"o":"m 1071 -85 q 1013 -219 1071 -164 q 876 -274 956 -274 q 740 -218 792 -274 q 688 -85 688 -162 q 742 51 688 -6 q 879 108 797 108 q 1015 49 958 108 q 1071 -85 1071 -11 m 383 921 q 328 786 383 840 q 192 732 274 732 q 56 788 111 732 q 0 921 0 844 q 58 1057 0 999 q 192 1115 117 1115 q 327 1055 271 1115 q 383 921 383 994 m 1731 -50 q 1732 -68 1732 -58 q 1732 -90 1732 -76 q 1731 -111 1731 -106 l 1731 -106 l 1731 -174 q 1374 249 1658 104 q 879 363 1147 363 q 389 253 610 363 q 22 -174 103 110 l 22 -54 q 22 -54 22 -54 q 28 -22 22 -49 q 35 14 33 6 q 60 125 44 53 q 225 424 86 261 q 524 650 371 592 q 610 688 551 665 q 765 722 739 718 q 861 728 797 728 l 861 728 l 876 728 q 1231 650 1042 728 q 1567 383 1436 565 q 1721 29 1686 217 q 1731 -50 1722 22 m 1754 921 q 1698 785 1754 838 q 1564 732 1642 732 q 1426 788 1482 732 q 1371 921 1371 843 q 1429 1056 1371 997 q 1563 1115 1488 1115 q 1699 1058 1643 1115 q 1754 921 1754 1000 z "},"F":{"ha":1389,"x_min":0,"x_max":1376,"o":"m 1006 414 q 917 643 1006 546 q 686 746 824 746 q 454 656 551 746 q 357 428 357 567 q 451 194 357 292 q 685 96 546 96 q 835 135 758 96 q 961 260 925 182 q 1006 414 1006 354 m 1035 414 q 921 161 1035 263 q 685 68 817 68 q 432 174 535 68 q 329 428 329 281 q 435 676 329 575 q 686 776 542 776 q 938 663 836 776 q 1035 414 1035 556 m 582 -24 q 553 39 574 0 q 506 57 538 57 q 428 22 504 57 l 428 -176 l 582 -24 m 326 228 q 318 256 326 236 q 298 288 307 281 q 213 326 289 296 l 74 188 l 306 178 q 326 228 326 239 m 922 8 l 918 31 l 856 60 q 807 17 822 56 q 782 -47 794 -15 l 918 -190 l 918 -93 q 922 3 922 -57 q 922 8 922 6 m 318 611 q 286 693 318 625 q 203 697 258 693 q 150 700 149 700 l 85 700 l 240 526 q 293 550 271 536 q 318 611 318 618 m 1076 406 q 1060 421 1061 414 q 1053 483 1058 443 q 1014 599 1039 544 q 957 689 994 629 q 921 710 946 689 q 885 739 890 735 q 779 786 824 772 q 693 804 735 800 q 688 811 688 810 q 678 801 688 808 l 676 801 q 469 739 569 801 q 417 701 451 725 q 313 517 331 607 q 294 432 310 481 q 332 276 306 374 q 401 164 357 222 q 404 156 404 160 q 404 153 404 154 q 413 156 404 156 q 456 122 415 156 q 529 78 497 89 q 592 54 553 68 q 671 38 618 54 q 682 47 675 46 q 781 60 717 51 q 888 108 826 68 q 919 132 903 119 q 944 144 935 144 q 947 144 946 144 q 950 156 947 140 q 1057 396 1046 263 q 1075 406 1058 406 l 1076 406 m 1276 157 l 1125 313 q 1061 283 1100 306 q 1050 264 1054 279 q 1043 244 1046 249 l 1076 157 l 1276 157 m 588 881 l 444 1032 l 436 832 q 436 831 436 831 q 439 819 436 821 q 508 790 511 790 q 556 808 518 790 q 588 881 565 832 m 1290 657 l 1094 667 q 1089 667 1092 667 q 1074 665 1081 667 q 1046 596 1046 593 q 1065 553 1046 568 q 1107 532 1079 542 q 1149 518 1143 519 l 1290 657 m 942 822 l 942 1026 l 785 874 q 804 822 799 833 q 854 785 824 792 l 942 822 m 1376 418 l 1156 325 l 1326 135 q 1299 121 1319 121 q 1297 121 1299 121 l 1089 129 l 1168 -75 l 954 18 q 947 -99 947 -21 l 947 -186 l 947 -189 q 931 -242 947 -242 q 857 -172 922 -242 q 769 -78 813 -125 l 685 -272 l 592 -53 l 414 -224 q 399 -215 404 -224 l 399 7 q 397 8 399 8 l 208 -75 l 296 147 q 139 158 200 158 l 38 158 q 25 174 32 160 l 183 336 l 0 418 l 211 514 l 36 715 q 50 731 43 731 l 50 731 l 274 722 q 275 726 275 724 l 203 919 l 406 835 q 410 857 407 842 l 413 1019 q 417 1049 417 1035 q 417 1057 417 1053 q 417 1064 417 1061 q 431 1082 417 1075 l 597 911 l 688 1108 l 772 903 l 958 1074 q 971 1064 964 1071 l 971 835 l 1175 914 l 1085 697 q 1325 682 1150 692 q 1338 668 1338 682 l 1178 506 l 1376 418 z "},"G":{"ha":1410,"x_min":0,"x_max":1389,"o":"m 365 108 q 339 179 365 147 q 264 213 308 213 q 191 181 221 213 q 161 107 161 150 q 191 38 161 67 q 264 8 221 8 q 335 36 304 8 q 365 108 365 64 m 558 -51 q 528 19 558 -12 q 454 51 497 51 q 382 18 413 51 q 351 -53 351 -15 q 383 -124 351 -94 q 454 -153 414 -153 q 524 -126 494 -153 q 558 -51 558 -97 m 281 340 q 250 410 281 379 q 178 442 219 442 q 104 409 135 442 q 74 339 74 376 q 105 267 74 297 q 178 238 136 238 q 249 265 217 238 q 281 340 281 293 m 796 -114 q 766 -42 796 -74 q 693 -11 736 -11 q 620 -44 649 -11 q 592 -115 592 -76 q 621 -186 592 -157 q 693 -215 650 -215 q 765 -187 735 -215 q 796 -114 796 -160 m 300 582 q 268 654 300 622 q 197 686 236 686 q 125 654 157 686 q 93 582 93 622 q 124 513 93 543 q 199 482 154 482 q 270 510 240 482 q 300 582 300 539 m 1035 -51 q 1006 19 1035 -14 q 932 51 976 51 q 862 22 893 51 q 831 -51 831 -8 q 858 -122 831 -92 q 932 -153 886 -153 q 1004 -126 974 -153 q 1035 -51 1035 -99 m 978 418 q 895 619 978 536 q 694 703 813 703 q 492 618 575 703 q 408 418 408 533 q 492 218 408 303 q 694 133 575 133 q 893 215 808 133 q 978 418 978 297 m 428 789 q 399 861 428 829 q 328 893 369 893 q 255 863 286 893 q 224 788 224 832 q 253 717 224 746 q 326 689 282 689 q 399 718 369 689 q 428 789 428 747 m 1221 104 q 1191 177 1221 144 q 1119 210 1161 210 q 1049 178 1081 210 q 1017 104 1017 146 q 1045 35 1017 67 q 1119 3 1074 3 q 1192 31 1163 3 q 1221 104 1221 60 m 635 918 q 606 990 635 958 q 535 1022 576 1022 q 460 990 490 1022 q 431 918 431 957 q 460 847 431 876 q 533 818 489 818 q 604 845 574 818 q 635 918 635 872 m 881 938 q 853 1009 881 978 q 779 1040 825 1040 q 708 1010 739 1040 q 678 938 678 981 q 707 867 678 899 q 779 836 736 836 q 850 865 819 836 q 881 938 881 893 m 1389 421 q 1379 315 1389 368 q 1325 332 1332 332 q 1316 324 1324 332 q 1294 313 1308 317 q 1233 306 1272 306 q 1047 346 1168 306 q 1022 290 1043 338 l 1340 169 q 1179 -74 1313 58 q 936 -231 1046 -206 q 854 -260 911 -243 q 694 -275 743 -275 q 203 -71 406 -275 q 0 418 0 133 q 203 908 0 701 q 694 1114 406 1114 q 1184 909 979 1114 q 1389 421 1389 704 z "},"H":{"ha":1401,"x_min":0,"x_max":1389,"o":"m 606 303 l 275 -6 q 349 -14 314 -6 q 372 -82 357 -37 l 606 303 m 581 331 l 175 124 q 246 94 200 114 q 248 61 246 85 q 250 25 250 38 q 250 22 250 24 l 581 331 m 642 286 l 406 -101 q 479 -90 454 -90 q 498 -120 485 -100 q 517 -150 511 -140 l 642 286 m 561 364 l 117 274 q 176 225 154 247 l 160 158 l 561 364 m 679 -175 l 679 281 l 556 -161 l 622 -131 q 679 -175 646 -147 m 561 404 l 157 433 l 100 433 l 144 375 q 128 344 139 365 q 111 313 117 322 l 561 404 m 842 -158 l 718 281 l 718 -175 q 776 -131 771 -131 q 842 -158 776 -131 m 556 443 l 125 594 q 153 528 131 583 l 99 474 l 556 443 m 989 -99 l 757 289 l 876 -147 q 917 -87 888 -129 q 989 -99 942 -90 m 564 479 l 196 742 q 200 668 197 717 q 139 631 179 654 l 564 479 m 1119 -1 l 789 308 l 1022 -79 q 1047 -7 1035 -39 q 1110 -1 1074 -1 q 1119 -1 1115 -1 m 586 510 l 301 864 q 283 790 293 828 q 215 775 268 789 l 586 510 m 1215 129 l 814 339 l 1144 28 q 1146 68 1144 42 q 1149 103 1147 94 q 1215 129 1190 125 m 614 542 l 438 951 q 403 889 426 931 l 329 889 l 614 542 m 1275 282 l 828 376 l 1232 167 q 1215 236 1226 192 q 1275 282 1240 258 m 650 558 l 589 1003 q 540 949 542 949 q 471 968 549 949 l 650 558 m 1286 442 l 1228 442 l 831 413 l 1281 321 q 1247 383 1247 379 q 1286 442 1247 381 m 753 1008 l 689 972 q 629 1008 669 985 l 688 561 l 753 1008 m 1286 479 l 1235 536 q 1261 600 1243 558 l 831 451 l 1286 479 m 913 971 q 870 960 897 968 q 840 951 843 951 q 792 1003 833 951 l 729 558 l 913 971 m 1250 639 q 1182 676 1225 653 q 1189 747 1183 700 l 819 488 l 1250 639 m 1051 892 l 979 892 q 947 954 958 929 l 765 544 l 1051 892 m 1171 778 q 1093 796 1124 792 q 1082 867 1089 819 l 797 519 l 1171 778 m 1389 418 q 1185 -72 1389 131 q 694 -275 981 -275 q 203 -71 406 -275 q 0 418 0 133 q 205 909 0 704 q 694 1114 410 1114 q 1185 908 982 1114 q 1389 418 1389 701 z "},"I":{"ha":1415,"x_min":0,"x_max":1383,"o":"m 1383 418 q 1271 318 1383 324 l 861 378 q 853 379 857 379 q 838 363 844 379 q 826 339 828 340 q 1010 211 894 293 q 1131 129 1071 169 q 1206 8 1206 69 q 1177 -72 1206 -40 q 1100 -103 1149 -103 q 988 -19 1053 -103 q 903 99 944 39 q 824 208 890 114 q 768 278 775 278 q 728 263 756 278 q 807 -168 807 -94 q 772 -244 807 -214 q 692 -275 736 -275 q 610 -243 643 -275 q 576 -162 576 -211 q 615 66 576 -107 q 653 260 653 239 q 653 263 653 261 q 613 278 626 278 q 536 179 604 278 q 404 -4 450 51 q 282 -103 324 -103 q 178 7 178 -103 q 210 92 178 63 q 556 336 250 128 q 545 363 551 349 q 526 378 539 378 q 521 376 524 378 l 108 318 q 0 418 0 322 q 110 521 0 514 l 521 458 l 522 458 q 544 474 536 458 q 556 497 550 485 q 332 649 529 517 q 193 767 221 724 q 178 829 178 790 q 205 908 178 876 q 279 939 232 939 q 288 939 283 939 q 296 939 293 939 q 324 926 308 939 q 501 708 385 874 q 611 558 608 558 q 653 574 607 558 q 613 776 632 675 q 576 999 576 960 q 610 1081 576 1047 q 692 1114 644 1114 q 772 1081 738 1114 q 807 1004 807 1047 q 771 783 807 974 q 728 574 740 624 q 769 558 768 558 q 860 679 774 558 q 960 819 910 749 q 1063 929 1021 901 q 1096 939 1076 939 l 1096 939 l 1103 939 q 1178 906 1150 939 q 1206 828 1206 872 q 1140 715 1206 769 q 1014 628 1076 671 q 826 500 951 586 q 836 474 832 486 q 853 457 842 457 q 861 458 856 457 l 1271 521 q 1383 418 1383 513 z "},"J":{"ha":1389,"x_min":0,"x_max":833,"o":"m 689 -3 q 610 -198 689 -121 q 415 -275 531 -275 q 221 -195 300 -275 q 142 -3 142 -115 q 222 192 142 111 q 415 272 303 272 q 610 192 532 272 q 689 -3 689 111 m 833 831 q 743 610 833 678 q 561 518 651 564 q 415 329 449 457 q 400 369 410 342 q 276 511 374 451 q 124 590 200 550 q 0 838 0 658 q 138 1078 0 1017 q 403 1113 219 1113 l 403 1113 l 425 1113 q 697 1076 617 1113 q 833 831 833 1017 z "},"K":{"ha":1415,"x_min":0,"x_max":1389,"o":"m 1235 415 q 1225 452 1235 415 q 1171 517 1215 489 q 1096 540 1132 540 l 1096 540 q 1093 540 1094 540 l 1164 843 q 1126 872 1149 869 l 829 807 q 800 892 829 828 q 753 926 793 903 q 699 949 714 949 q 645 926 682 949 q 601 893 608 904 q 583 850 590 878 q 574 807 578 828 l 274 872 q 272 872 272 872 q 232 843 263 872 l 306 542 q 228 517 281 539 q 187 467 210 504 q 164 415 164 431 q 178 377 164 406 q 196 342 192 349 q 307 292 229 300 l 232 -14 q 269 -43 257 -37 l 567 22 q 569 22 568 22 q 575 21 574 22 q 575 14 575 18 q 593 -49 575 -17 q 644 -99 613 -85 q 699 -119 692 -119 q 756 -99 713 -119 q 800 -62 778 -87 q 819 -18 815 -46 q 826 22 824 3 l 840 22 l 1131 -43 q 1164 -12 1153 -28 l 1093 290 q 1149 301 1114 293 q 1195 333 1169 306 q 1226 381 1221 361 q 1235 415 1235 418 m 1389 418 q 1344 321 1389 381 q 1268 267 1324 292 q 1204 256 1246 265 l 1297 -137 q 1253 -179 1285 -156 l 858 -90 q 829 -194 851 -129 q 765 -247 817 -218 q 694 -275 714 -275 q 674 -268 690 -275 q 650 -258 657 -261 q 561 -194 594 -244 q 529 -99 529 -149 q 531 -93 529 -94 q 524 -90 528 -90 q 521 -90 524 -90 l 133 -179 q 88 -137 106 -160 l 182 258 q 119 268 160 261 q 39 328 78 275 q 0 418 0 381 q 36 504 0 454 q 108 565 72 554 q 182 582 133 569 l 88 974 q 138 1014 111 1007 l 528 926 q 542 999 531 950 q 556 1029 547 1010 q 617 1080 564 1049 q 694 1111 669 1111 q 766 1082 715 1111 q 829 1031 817 1053 q 851 976 847 999 q 860 926 851 956 l 1249 1014 q 1297 974 1274 1007 l 1204 581 q 1264 572 1225 576 q 1346 512 1303 568 q 1389 418 1389 456 z "},"L":{"ha":1389,"x_min":0,"x_max":1239,"o":"m 1214 167 q 1174 271 1214 225 q 1067 319 1129 319 q 979 296 1015 319 q 958 277 975 293 q 936 261 942 261 q 924 269 924 261 l 924 568 q 936 579 924 579 q 971 549 929 579 q 1060 519 1013 519 q 1167 562 1119 519 q 1214 671 1214 604 q 1171 776 1214 735 q 1060 818 1128 818 q 953 774 997 818 q 910 664 910 729 q 917 614 910 639 q 906 607 911 607 l 903 607 q 900 608 901 607 q 743 699 822 653 q 638 768 638 761 q 664 789 638 778 q 694 802 679 794 q 740 838 710 810 q 774 929 774 871 q 730 1038 774 992 q 621 1083 686 1083 q 512 1038 556 1083 q 468 929 468 992 q 583 783 468 822 q 600 774 594 781 l 600 764 q 333 607 339 607 q 321 619 321 607 q 326 640 321 621 q 332 664 332 660 q 289 773 332 728 q 176 818 246 818 q 71 781 115 818 q 22 669 22 739 q 67 565 22 611 q 171 519 113 519 q 217 526 183 519 q 249 536 239 531 q 283 563 260 542 q 306 579 304 579 q 319 571 310 579 l 319 268 q 306 261 311 261 q 289 276 306 261 q 244 304 268 294 q 169 319 211 319 q 66 269 110 319 q 22 163 22 219 q 72 59 22 100 q 182 18 122 18 q 286 63 240 18 q 332 168 332 107 q 326 196 332 172 q 321 224 321 219 q 333 239 321 239 q 600 72 600 94 q 575 56 600 64 q 514 13 546 46 q 476 -43 482 -19 q 468 -90 468 -83 q 513 -199 468 -153 q 619 -244 557 -244 q 726 -200 679 -244 q 774 -89 774 -156 q 756 -18 774 -46 q 694 40 732 18 q 644 61 676 47 q 638 72 638 65 q 860 211 638 83 q 906 239 907 239 q 918 226 918 239 q 915 203 918 219 q 911 175 911 186 q 954 65 911 111 q 1063 18 997 18 q 1169 60 1124 18 q 1214 167 1214 103 m 1239 167 q 1186 42 1239 92 q 1063 -7 1133 -7 q 998 7 1032 -7 q 969 21 964 21 q 949 3 968 21 q 918 -21 929 -14 q 829 -69 892 -39 q 800 -79 819 -72 q 746 -217 800 -164 q 619 -271 692 -271 q 553 -257 593 -271 q 468 -186 500 -239 q 442 -90 442 -140 q 442 -79 442 -85 q 415 -72 433 -78 q 322 -21 381 -57 q 295 1 315 -17 q 272 18 275 18 q 240 6 274 18 q 182 -7 206 -7 q 57 39 110 -7 q 0 161 0 88 q 93 326 0 265 q 93 332 93 329 q 90 367 93 342 q 86 404 86 392 q 96 513 86 444 q 0 671 0 563 q 54 800 0 750 q 176 846 104 846 q 242 833 215 846 q 271 819 268 819 q 296 838 274 819 q 325 860 318 856 q 442 918 361 882 q 442 925 442 922 q 497 1056 442 1001 q 619 1111 551 1111 q 726 1072 676 1111 q 796 965 782 1032 q 800 918 797 958 q 915 860 842 900 q 944 836 922 854 q 969 818 967 818 q 983 825 971 818 q 1000 835 994 832 q 1060 846 1035 846 q 1188 794 1136 846 q 1239 671 1239 743 q 1215 583 1239 628 q 1140 513 1186 533 q 1151 411 1151 443 q 1143 326 1151 413 q 1217 251 1189 303 q 1239 167 1239 208 z "},"M":{"ha":1432,"x_min":0,"x_max":1421,"o":"m 582 254 q 188 -174 582 249 q 160 -139 168 -149 q 122 -111 139 -117 q 336 90 229 -11 q 560 288 549 288 q 582 254 582 288 m 550 422 q 539 404 550 410 q 340 340 438 357 q 143 328 268 328 q 117 328 135 328 q 90 326 99 326 q 21 347 42 326 q 0 418 0 367 q 32 500 0 481 q 111 514 54 514 q 115 514 113 514 q 119 514 117 514 q 196 511 138 514 q 550 422 449 497 m 803 -156 q 789 -244 803 -224 q 710 -275 771 -275 q 631 -249 651 -275 q 617 -178 617 -229 q 708 276 617 163 q 782 85 756 235 q 803 -156 803 -33 m 1296 -111 q 1260 -137 1279 -117 q 1236 -174 1242 -157 q 839 244 1049 21 q 838 257 838 249 q 858 288 838 288 q 1296 -111 874 288 m 826 418 q 789 332 826 364 q 710 304 757 304 q 628 335 663 304 q 594 417 594 367 q 628 499 594 464 q 710 533 663 533 q 793 497 760 533 q 826 418 826 460 m 582 582 q 561 551 582 551 q 543 556 547 551 q 122 947 400 686 q 183 1010 169 971 q 385 800 232 961 q 582 582 582 593 m 715 563 l 706 563 q 618 983 618 676 l 617 1006 q 631 1082 617 1061 q 710 1114 650 1114 q 790 1082 769 1114 q 803 1011 803 1061 q 715 563 803 688 m 1421 419 q 1401 347 1421 368 q 1333 326 1381 326 q 1306 328 1325 326 q 1275 328 1286 328 q 867 419 967 328 q 1040 492 935 471 q 1222 511 1088 500 q 1289 514 1263 514 q 1299 514 1293 514 q 1306 514 1304 514 q 1390 499 1368 514 q 1421 419 1421 479 m 1296 947 l 878 556 q 860 551 874 551 q 838 579 838 551 q 913 669 838 589 q 1236 1010 1039 806 q 1261 974 1240 994 q 1296 947 1282 953 z "},"N":{"ha":1415,"x_min":0,"x_max":1389,"o":"m 518 200 l 132 -179 q 88 -140 114 -167 l 475 243 q 518 200 475 243 m 856 -94 q 739 -258 856 -214 q 694 -275 697 -275 q 650 -258 703 -275 q 529 -90 529 -222 q 583 61 529 -29 q 675 222 671 215 q 689 243 681 235 q 708 227 701 242 q 721 200 715 213 q 840 -10 767 131 q 856 -94 856 -50 m 518 419 q 490 394 518 411 q 453 376 471 385 q 393 338 433 363 q 183 261 265 261 q 116 267 151 261 q 40 328 81 274 q 0 418 0 382 q 36 503 0 454 q 109 565 72 553 q 183 578 146 578 q 317 540 243 578 q 450 463 383 501 q 485 444 468 454 q 518 419 518 428 m 518 636 l 478 594 l 88 976 l 129 1014 l 518 636 m 853 418 q 806 307 853 353 q 693 261 760 261 q 580 306 624 261 q 536 419 536 351 q 582 532 536 486 q 694 578 628 578 q 808 530 763 578 q 853 418 853 482 m 1297 -140 l 1257 -179 l 867 200 l 908 243 l 1297 -140 m 856 931 q 803 772 856 861 q 700 596 751 683 l 686 596 q 588 767 682 603 q 529 926 529 867 q 554 1019 529 976 q 642 1092 585 1071 q 694 1111 694 1111 q 747 1092 697 1111 q 856 931 856 1049 m 1389 418 q 1344 321 1389 381 q 1268 267 1322 289 q 1204 261 1253 261 q 1041 312 1129 261 q 867 414 953 363 q 879 432 867 425 q 1029 517 929 458 q 1206 578 1125 578 q 1230 575 1208 578 q 1263 571 1251 572 q 1346 512 1303 568 q 1389 418 1389 456 m 1297 976 l 911 594 q 867 636 903 601 l 1254 1014 q 1297 976 1282 992 z "},"O":{"ha":1389,"x_min":0,"x_max":1239,"o":"m 1239 160 q 1189 42 1239 89 q 1072 -4 1139 -4 l 1065 -4 q 1006 6 1033 -4 q 929 75 958 24 q 904 174 904 121 q 910 215 904 196 q 654 363 797 285 l 654 63 q 792 -103 792 7 q 741 -226 792 -176 q 619 -275 690 -275 q 497 -225 544 -275 q 450 -104 450 -175 q 486 -7 450 -53 q 588 64 525 46 l 588 360 q 585 363 586 361 l 329 218 l 329 211 q 339 160 339 164 q 287 41 339 86 q 168 -4 235 -4 q 49 42 97 -4 q 0 160 0 89 q 49 280 0 231 q 165 329 99 329 q 300 268 240 329 l 551 417 l 301 567 q 238 522 260 532 q 163 508 210 508 q 47 559 93 508 q 0 678 0 610 q 50 798 0 753 q 169 843 100 843 q 292 790 244 843 q 339 661 339 738 q 326 622 339 644 l 586 474 l 586 775 q 487 842 524 796 q 450 940 450 889 q 500 1061 450 1008 q 619 1114 550 1114 q 742 1062 693 1114 q 792 940 792 1010 q 756 846 792 892 q 653 775 717 794 l 653 474 l 911 622 q 901 674 901 647 q 952 792 901 742 q 1068 843 1003 843 q 1189 797 1139 843 q 1239 681 1239 750 q 1192 561 1239 614 q 1076 508 1144 508 q 940 567 1000 508 l 686 417 l 940 268 q 1072 329 1007 329 q 1192 279 1144 329 q 1239 160 1239 229 z "},"P":{"ha":1429,"x_min":0,"x_max":1386,"o":"m 526 231 q 439 96 497 186 q 364 -29 401 33 q 265 -94 319 -94 q 205 -71 229 -94 q 181 -11 181 -47 q 250 83 181 38 q 506 243 493 243 q 526 231 501 243 m 440 404 q 271 365 356 385 q 88 331 111 331 q 24 358 49 331 q 0 421 0 386 q 28 479 0 453 q 88 508 56 506 l 440 435 l 440 404 m 783 -189 q 756 -250 783 -225 q 692 -275 728 -275 q 638 -253 663 -275 q 606 -189 608 -228 l 679 165 l 707 165 q 749 -15 728 75 q 783 -189 783 -165 m 874 417 q 824 285 874 339 q 696 232 774 232 q 566 284 622 232 q 510 410 510 336 q 565 538 510 481 q 694 596 619 596 q 819 542 765 596 q 874 417 874 488 m 1204 -11 q 1103 -94 1204 -94 q 1075 -85 1086 -94 q 1007 6 1044 -56 q 953 96 979 50 l 863 231 q 870 240 865 233 q 878 249 875 246 q 1029 153 965 197 q 1139 85 1083 118 q 1204 -11 1204 38 m 524 606 q 515 597 521 603 q 508 588 510 590 q 324 701 415 644 q 195 796 210 772 q 181 846 181 819 q 205 906 181 881 q 265 932 229 932 q 353 869 310 932 q 414 771 383 821 q 524 606 450 715 m 778 1022 l 707 672 l 679 672 q 639 835 660 754 q 603 1022 603 992 q 629 1085 603 1057 q 693 1114 656 1114 q 750 1087 721 1114 q 779 1032 779 1060 q 778 1022 779 1026 m 1386 415 q 1364 364 1386 390 q 1300 331 1339 332 l 944 401 l 944 429 l 1294 508 q 1364 472 1339 504 q 1386 415 1386 446 m 1204 846 q 1193 801 1204 818 q 1125 747 1182 785 q 879 590 1010 671 q 860 606 875 590 q 978 790 899 667 q 1035 881 1006 835 q 1118 932 1075 932 q 1180 906 1156 932 q 1204 846 1204 881 z "},"Q":{"ha":1389,"x_min":0,"x_max":1236,"o":"m 1236 731 l 1035 617 l 1224 526 q 1190 475 1203 494 l 968 578 l 679 418 l 968 257 l 1182 364 l 1190 364 q 1224 308 1203 344 l 1035 218 l 1236 106 l 1190 33 l 996 146 l 1004 -62 q 944 -44 985 -57 q 924 192 938 35 q 653 353 806 265 l 653 32 l 858 -104 l 829 -161 l 653 -46 l 653 -275 l 582 -275 l 582 -46 l 403 -161 q 376 -107 393 -142 l 581 32 l 581 353 q 314 192 492 300 q 293 -44 307 117 q 235 -62 260 -53 l 235 146 l 49 33 q 0 106 33 56 l 200 218 l 7 308 l 46 364 l 54 364 l 269 257 l 553 418 l 269 578 l 46 475 l 7 526 l 200 617 l 0 731 l 46 803 l 236 686 l 238 689 q 239 701 239 693 q 237 787 239 719 q 235 879 235 854 q 235 901 235 894 q 293 883 256 894 q 314 643 299 803 q 582 482 401 590 l 582 803 l 376 940 q 403 997 385 960 l 579 883 l 579 1113 l 653 1113 l 653 883 l 826 997 q 858 942 828 996 l 653 803 l 653 482 q 924 643 739 533 q 944 883 931 722 q 1004 901 963 889 l 994 711 l 996 686 l 1188 803 q 1236 731 1204 779 z "},"R":{"ha":1389,"x_min":0,"x_max":1257,"o":"m 588 79 l 588 351 l 357 217 l 357 -47 l 588 79 m 547 419 l 318 546 l 93 419 l 318 289 l 547 419 m 900 -47 l 900 217 l 671 351 l 671 79 l 900 -47 m 588 485 l 588 756 l 357 882 l 357 618 l 588 485 m 1165 419 l 939 546 l 711 419 l 939 289 l 1165 419 m 900 618 l 900 882 l 671 756 l 671 485 l 900 618 m 1257 117 q 1244 100 1257 113 q 1225 78 1228 82 q 1218 51 1222 74 q 1201 33 1215 38 l 939 192 l 939 -115 l 672 36 l 690 -219 l 690 -267 q 678 -275 686 -275 q 665 -274 686 -275 q 647 -271 661 -274 q 631 -268 633 -268 q 610 -271 628 -268 q 571 -275 588 -274 q 567 -249 567 -267 q 567 -246 567 -247 l 588 33 q 586 35 588 35 l 317 -115 l 317 192 l 57 33 l 57 33 q 43 50 50 33 q 32 78 33 76 q 15 95 31 79 q 0 117 0 111 q 272 265 0 122 l 13 419 l 272 571 q 126 647 199 608 q 0 719 0 714 q 33 758 0 715 q 42 783 35 761 q 58 806 46 800 l 318 643 l 318 949 l 586 800 l 567 1081 q 567 1093 567 1094 q 581 1113 567 1113 q 603 1109 582 1113 q 629 1106 625 1106 q 655 1109 632 1106 q 681 1113 678 1113 q 690 1093 690 1113 q 689 1081 690 1088 l 671 801 l 940 949 l 940 643 l 1200 806 q 1215 785 1210 801 q 1224 760 1222 763 q 1243 738 1226 757 q 1257 719 1257 724 q 1160 663 1257 714 q 986 571 1014 586 l 1244 419 l 986 265 q 1257 117 1257 126 z "},"S":{"ha":1389,"x_min":0,"x_max":1244,"o":"m 1244 575 l 1203 476 l 889 544 l 671 417 l 886 290 l 1196 360 q 1203 358 1199 360 q 1244 261 1218 326 l 1056 199 l 1236 94 q 1206 50 1228 83 l 1025 151 l 1067 -43 q 963 -61 1031 -49 q 925 101 960 -53 q 865 253 903 201 q 765 324 836 294 q 647 372 706 349 l 647 131 l 865 -119 l 804 -201 l 647 -64 l 654 -275 l 590 -275 l 590 -64 l 438 -201 l 376 -119 l 594 131 l 594 372 q 482 329 538 350 q 376 253 408 297 q 315 101 338 201 q 279 -61 281 -56 q 172 -43 242 -56 l 215 150 q 214 151 215 150 l 36 50 q 8 94 28 64 l 188 199 l 0 261 l 36 360 l 50 360 l 353 290 l 568 417 l 350 544 l 36 476 l 0 575 l 188 643 l 8 742 q 21 766 11 749 q 33 792 31 783 l 214 685 l 172 879 l 271 897 q 285 880 281 897 q 294 846 290 863 q 325 711 299 835 q 376 588 343 631 q 475 518 406 550 q 592 464 585 467 l 592 706 l 376 956 l 435 1043 l 590 900 q 594 931 594 904 q 592 1006 594 944 q 589 1108 589 1067 l 589 1114 l 654 1114 l 644 925 l 647 900 l 801 1043 l 865 956 l 647 706 l 647 464 q 754 519 700 492 q 865 588 825 557 q 882 640 871 606 q 961 894 908 725 q 971 897 963 897 l 1067 879 l 1024 686 l 1203 792 q 1236 742 1206 788 l 1056 643 l 1244 575 z "},"T":{"ha":1389,"x_min":0,"x_max":914,"o":"m 732 -3 q 651 -197 732 -118 q 458 -275 571 -275 q 264 -195 343 -275 q 185 -3 185 -115 q 265 192 185 111 q 458 272 346 272 q 653 190 574 272 q 732 -3 732 108 m 914 854 q 821 619 914 699 q 628 508 813 613 q 458 329 504 440 q 306 501 419 432 q 118 601 213 551 q 0 832 0 678 q 50 1018 0 940 q 225 1113 111 1113 q 370 1049 303 1113 q 457 892 438 986 l 460 892 q 549 1051 489 989 q 690 1113 610 1113 q 863 1024 800 1113 q 914 854 914 949 z "},"U":{"ha":1421,"x_min":0,"x_max":1385,"o":"m 1385 389 l 851 389 l 1346 190 q 1315 118 1339 171 l 821 335 l 1207 -44 l 1158 -100 l 779 293 q 778 290 778 293 l 996 -210 q 925 -235 994 -210 l 719 268 l 729 -275 l 658 -275 l 658 268 l 464 -235 q 393 -210 414 -214 l 601 292 l 231 -100 q 172 -44 218 -90 l 563 335 q 560 336 563 335 l 67 118 q 38 190 54 139 l 538 386 l 0 386 l 0 453 l 540 453 l 38 650 q 67 718 53 694 l 558 513 l 172 883 l 228 936 l 601 554 q 603 556 601 554 l 390 1047 l 454 1074 l 653 579 l 653 1113 l 729 1113 l 718 579 l 911 1074 q 983 1047 919 1072 l 778 554 l 1150 935 q 1207 883 1183 907 l 824 513 q 825 511 824 513 l 1317 718 q 1346 650 1328 696 l 849 457 l 1385 457 l 1385 389 z "},"V":{"ha":1389,"x_min":0,"x_max":1331,"o":"m 1176 368 q 1040 119 1176 217 q 861 22 1003 93 q 760 -37 785 -17 q 714 -121 714 -74 q 747 -198 714 -169 q 826 -226 781 -226 q 939 -174 906 -226 q 974 -78 943 -167 q 1033 -25 992 -25 q 1092 -46 1064 -25 q 1119 -97 1119 -67 q 990 -240 1119 -190 q 811 -275 900 -275 q 397 -103 575 -275 q 219 307 219 69 q 274 536 219 439 q 486 665 344 665 q 567 650 526 665 q 660 544 639 624 q 671 450 671 496 q 707 433 682 444 q 946 611 803 611 q 1117 536 1051 611 q 1176 368 1176 468 m 774 889 q 750 983 774 939 q 667 1040 719 1040 q 620 1019 640 1040 q 600 969 600 997 q 763 819 600 901 q 774 885 774 835 l 774 889 m 1331 981 q 1194 775 1331 863 q 983 700 1079 700 q 822 742 899 700 l 696 494 q 697 497 697 496 q 696 514 697 503 q 696 528 696 525 q 739 656 696 567 q 782 756 782 746 q 633 840 722 788 q 276 1004 388 1004 q 151 953 206 1004 q 97 832 97 903 q 104 789 97 801 q 133 750 114 769 q 147 725 147 738 q 115 676 147 694 q 67 663 90 663 q 0 742 0 663 q 110 964 0 850 q 331 1078 221 1078 q 561 975 417 1078 q 561 979 561 976 q 558 1000 561 986 q 556 1021 556 1014 q 558 1033 556 1028 q 610 1085 563 1051 q 689 1108 642 1108 q 813 1042 765 1108 q 853 915 853 985 q 836 803 853 890 q 1014 746 926 746 q 1117 775 1074 746 q 1168 867 1168 808 q 1151 918 1168 903 q 1110 967 1121 946 q 1106 989 1106 974 q 1138 1074 1106 1035 q 1219 1114 1169 1114 q 1306 1064 1275 1114 q 1331 981 1331 1025 z "},"W":{"ha":1389,"x_min":0,"x_max":1381,"o":"m 586 211 q 561 224 568 224 q 497 115 529 172 q 432 18 456 43 q 351 -21 396 -21 q 282 10 310 -21 q 254 79 254 42 q 336 199 254 142 q 493 299 415 249 q 481 314 486 311 q 435 296 461 307 q 278 224 357 260 q 189 83 189 169 q 233 -33 189 17 q 350 -83 278 -83 q 507 33 444 -83 q 586 211 547 122 m 471 349 q 464 369 469 360 l 243 317 l 182 317 q 151 338 172 317 q 125 369 129 360 q 115 418 115 389 q 219 522 115 522 q 450 467 243 522 l 467 467 q 469 478 467 471 q 471 488 471 486 q 349 536 410 513 q 215 576 250 576 q 95 531 146 576 q 44 417 44 486 q 95 304 44 349 q 213 260 146 260 q 343 299 257 260 q 471 349 389 317 m 849 -67 q 839 -6 849 -37 q 796 114 825 40 q 757 196 764 196 q 747 194 753 196 q 742 192 742 192 l 742 183 q 765 78 742 181 q 789 -49 789 -24 q 690 -157 789 -157 q 589 -50 599 -157 l 639 192 q 632 194 636 192 q 624 196 628 196 q 576 90 615 196 q 536 -25 542 -4 q 532 -67 532 -39 q 579 -174 532 -124 q 690 -224 626 -224 q 797 -175 746 -224 q 849 -67 849 -126 m 1192 82 q 1147 185 1192 140 q 1049 250 1114 218 q 946 296 997 272 q 894 314 928 301 q 891 304 893 311 q 888 294 889 297 q 1025 213 956 253 q 1126 81 1126 146 q 1101 14 1126 44 q 1029 -21 1072 -21 q 901 81 965 -21 q 819 224 860 153 q 794 208 806 219 q 875 31 835 119 q 1029 -83 938 -83 q 1145 -35 1099 -83 q 1192 82 1192 13 m 586 628 q 499 815 543 721 q 344 919 440 919 q 233 869 276 919 q 189 753 189 819 q 249 636 189 682 q 393 561 276 617 q 482 522 474 522 q 493 540 483 522 q 344 631 419 586 q 254 754 254 689 q 281 826 254 794 q 351 857 307 857 q 468 769 410 857 q 565 613 517 690 q 586 628 574 618 m 863 418 q 813 540 863 488 q 689 593 763 593 q 569 541 624 593 q 515 418 515 489 q 565 297 515 347 q 689 246 614 246 q 812 295 761 246 q 863 418 863 344 m 1332 417 q 1284 532 1332 488 q 1165 576 1236 576 q 1053 544 1128 576 q 910 488 936 496 q 914 469 914 475 q 913 467 914 467 l 928 467 q 967 478 931 467 q 1018 493 1004 490 q 1093 513 1056 503 q 1161 522 1131 522 q 1235 494 1206 522 q 1265 418 1265 467 q 1250 358 1265 381 q 1223 332 1243 347 q 1199 317 1203 317 l 1138 317 l 914 369 q 912 360 914 367 q 910 349 910 353 q 996 315 940 336 q 1082 281 1039 297 q 1165 260 1133 260 q 1283 302 1233 260 q 1332 417 1332 344 m 849 903 q 799 1010 849 957 q 690 1063 749 1063 q 583 1011 635 1063 q 532 903 532 960 q 569 762 532 878 q 618 639 607 646 q 621 638 619 639 q 638 644 633 644 q 639 644 639 644 l 589 886 q 690 993 601 993 q 789 890 789 993 q 789 885 789 888 l 742 644 q 751 641 744 644 q 761 638 757 638 q 795 717 765 638 q 842 850 825 796 q 849 903 849 874 m 1192 751 q 1151 863 1192 813 q 1033 919 1106 919 q 876 807 938 919 q 794 625 835 715 q 818 613 804 621 q 865 692 829 622 q 935 801 906 767 q 1029 857 982 857 q 1099 827 1071 857 q 1126 754 1126 797 q 1081 664 1126 707 q 979 598 1050 638 q 888 540 908 558 q 894 522 889 533 q 1072 597 983 560 q 1192 751 1192 661 m 1381 417 q 1328 285 1381 344 q 1186 211 1272 221 q 1242 81 1242 131 q 1174 -70 1242 -8 q 1025 -132 1106 -132 q 967 -121 990 -132 q 894 -86 931 -104 q 690 -275 851 -275 q 482 -86 529 -275 q 407 -124 414 -122 q 354 -132 389 -132 q 203 -69 268 -132 q 138 81 138 -6 q 160 156 138 114 q 192 210 176 183 q 47 290 99 229 q 0 417 0 344 q 46 546 0 492 q 189 628 96 606 q 138 753 138 708 q 207 907 138 843 q 356 971 272 971 q 483 919 414 971 q 486 924 483 921 q 558 1063 496 1007 q 689 1114 617 1114 q 823 1061 763 1114 q 894 919 883 1008 q 928 940 906 926 q 1022 971 983 971 q 1176 903 1110 971 q 1242 753 1242 836 q 1189 628 1242 704 q 1329 551 1274 614 q 1381 417 1381 492 z "},"X":{"ha":1415,"x_min":0,"x_max":1386,"o":"m 532 65 q 423 151 478 94 q 353 251 368 208 l 229 -65 l 532 65 m 828 58 l 818 58 q 715 39 768 39 q 704 39 713 39 q 692 39 696 39 q 610 46 638 39 q 590 53 604 47 q 572 58 575 58 l 560 58 l 694 -261 l 828 58 m 336 279 q 311 415 311 376 q 336 550 311 444 l 22 414 l 336 279 m 1168 -65 l 1042 249 q 963 144 1021 199 q 854 65 906 90 l 1168 -65 m 1024 411 q 932 646 1024 546 q 696 751 838 751 q 471 667 569 751 q 360 425 360 571 q 453 190 360 289 q 693 88 550 88 q 921 178 824 88 q 1024 411 1024 274 m 540 769 l 224 907 l 346 579 q 426 690 367 632 q 540 769 486 749 m 822 781 l 697 1088 l 563 781 q 601 789 578 783 q 699 800 643 800 q 710 800 703 800 q 721 800 718 800 q 822 781 769 800 m 1368 414 l 1056 550 q 1078 414 1078 449 q 1071 338 1078 376 q 1056 279 1064 315 l 1368 414 m 1171 899 l 854 769 q 967 683 908 743 q 1039 579 1026 622 l 1171 899 m 1386 418 q 1183 -73 1386 129 q 694 -275 979 -275 q 202 -74 404 -275 q 0 417 0 128 q 203 908 0 701 q 694 1114 406 1114 q 1183 908 981 1114 q 1386 418 1386 701 z "},"Y":{"ha":1418,"x_min":0,"x_max":1389,"o":"m 1389 419 q 1326 285 1389 336 q 1199 238 1271 238 q 1106 256 1165 238 q 1074 283 1092 260 q 1038 328 1056 306 q 990 371 1010 360 q 928 392 965 382 q 833 406 871 406 q 818 406 826 406 q 790 338 814 368 q 714 297 760 299 q 711 285 711 293 q 711 281 711 283 q 711 278 711 279 q 724 183 711 258 q 829 53 733 115 q 878 -8 865 29 q 890 -76 890 -44 l 890 -79 q 833 -219 890 -164 q 694 -275 776 -275 q 563 -222 613 -275 q 513 -89 513 -168 q 539 17 513 -18 q 593 65 551 32 q 646 121 629 94 q 663 157 658 143 q 681 257 681 228 l 681 294 q 610 326 647 296 q 572 396 572 357 q 572 400 572 399 q 565 403 568 403 q 393 356 453 403 q 317 269 354 313 q 199 224 272 224 q 56 278 113 224 q 0 417 0 333 q 56 548 0 496 q 186 600 111 600 q 297 567 256 600 q 360 499 328 532 q 458 443 400 457 q 500 433 506 433 l 569 433 q 609 506 576 471 q 678 543 642 540 q 628 728 675 668 q 540 802 585 764 q 496 922 496 840 q 553 1056 496 997 q 692 1114 610 1114 q 826 1053 774 1114 q 875 919 875 997 q 863 849 875 890 q 813 788 857 826 q 746 721 760 742 q 707 565 707 663 q 708 543 707 554 q 780 506 744 538 q 815 439 815 475 q 835 436 822 436 q 1000 483 943 438 q 1076 569 1038 526 q 1197 615 1121 615 q 1333 556 1278 615 q 1389 419 1389 497 z "},"Z":{"ha":1389,"x_min":3,"x_max":1367,"o":"m 1367 144 l 944 181 l 968 -275 l 681 54 l 389 -275 l 422 178 q 406 181 415 181 q 403 181 406 181 q 400 181 400 181 l 3 144 l 329 433 l 3 719 l 419 686 l 389 1111 l 678 781 l 968 1111 l 942 689 l 1358 719 l 1039 433 l 1367 144 z "},"a":{"ha":1425,"x_min":0,"x_max":1392,"o":"m 953 269 l 953 304 l 578 304 l 578 678 l 551 678 q 534 674 547 678 q 519 671 521 671 q 282 532 371 649 q 201 301 201 428 q 311 38 201 149 q 578 -72 421 -72 q 671 -64 617 -72 q 725 -43 690 -56 q 874 73 806 -14 q 946 233 942 160 q 949 253 946 239 q 953 269 953 267 m 1392 303 l 1158 303 q 1119 99 1150 189 q 1033 -49 1097 33 q 893 -182 964 -137 q 578 -275 743 -275 q 167 -107 335 -275 q 0 301 0 61 q 92 614 0 471 q 390 847 196 778 q 576 881 464 872 q 578 885 578 883 q 578 886 578 885 q 578 888 578 888 l 578 1114 l 1392 303 z "},"b":{"ha":1432,"x_min":0,"x_max":1389,"o":"m 621 332 q 557 185 621 288 q 413 0 492 78 q 253 -90 319 -90 q 185 -24 185 -90 q 299 161 185 51 q 485 296 399 257 q 621 346 531 317 l 621 332 m 790 -65 q 694 -275 790 -275 q 597 -65 597 -275 q 693 311 597 169 q 768 139 740 261 q 790 -65 790 36 m 589 418 q 419 346 532 372 q 214 322 319 322 q 0 418 0 322 q 89 501 0 476 q 207 515 142 515 q 424 489 318 515 q 589 418 529 463 m 1204 -24 q 1136 -90 1204 -90 q 971 3 1064 -90 q 829 193 893 82 q 768 342 768 297 q 772 343 768 343 q 906 296 810 343 q 1086 163 988 256 q 1204 -24 1204 50 m 621 493 l 606 493 q 460 556 563 493 q 275 700 351 622 q 185 858 185 792 q 203 907 185 885 q 251 929 222 929 q 411 839 317 929 q 543 679 488 765 q 621 503 604 583 l 621 493 m 1389 418 q 1175 322 1389 322 q 799 418 931 322 q 986 493 868 467 q 1182 515 1083 515 q 1300 501 1247 515 q 1389 418 1389 476 m 790 901 q 696 524 790 665 q 619 706 646 586 q 597 900 597 801 q 610 1014 597 964 q 694 1114 633 1114 q 790 901 790 1114 m 1204 860 q 1028 622 1204 760 q 783 493 864 493 l 768 493 q 768 497 768 496 q 831 646 768 540 q 975 836 897 757 q 1138 929 1068 929 q 1184 908 1164 929 q 1204 860 1204 888 z "},"c":{"ha":1421,"x_min":0,"x_max":1392,"o":"m 1392 126 l 990 -275 l 407 -275 l 0 129 l 0 707 l 410 1114 l 988 1114 l 1392 707 l 1392 126 z "},"d":{"ha":1425,"x_min":0,"x_max":1389,"o":"m 986 700 q 900 906 986 818 q 694 994 814 994 q 489 906 575 994 q 403 700 403 818 q 488 494 403 579 q 696 408 574 408 q 899 492 813 408 q 986 700 986 576 m 1389 418 q 1185 -72 1389 131 q 694 -275 981 -275 q 203 -71 406 -275 q 0 418 0 133 q 205 909 0 704 q 694 1114 410 1114 q 1185 908 982 1114 q 1389 418 1389 701 z "},"e":{"ha":1408,"x_min":0,"x_max":1389,"o":"m 1389 415 l 1157 185 l 928 411 l 697 186 l 926 -44 l 696 -275 l 463 -44 l 692 186 l 464 411 l 233 185 l 0 415 l 231 646 l 461 419 l 692 650 l 463 879 l 693 1111 l 926 879 l 697 650 l 925 419 l 1154 646 l 1389 415 z "},"f":{"ha":1421,"x_min":0,"x_max":1392,"o":"m 1392 413 q 1243 299 1310 403 q 1135 346 1210 315 q 1014 376 1107 357 q 879 399 913 399 l 826 399 q 804 346 824 379 q 1169 125 1013 151 q 1161 35 1161 43 q 1196 -62 1161 -21 q 1186 -79 1196 -61 q 1079 -42 1142 -42 q 994 -50 1093 -42 q 774 313 957 119 q 721 292 743 292 q 719 292 721 292 q 821 -124 722 40 q 746 -189 778 -149 q 704 -275 710 -233 l 688 -275 q 651 -193 686 -237 q 574 -124 618 -153 q 632 14 603 -69 q 656 118 639 32 q 674 235 674 211 l 674 290 q 621 313 649 294 q 481 138 543 238 q 400 -47 415 32 q 350 -44 385 -47 q 314 -42 315 -42 q 247 -60 286 -42 q 210 -79 228 -69 q 196 -67 208 -79 q 231 42 231 -24 q 222 125 231 71 q 588 346 379 151 q 576 369 579 356 q 568 399 572 383 l 515 399 q 374 375 479 399 q 266 349 288 356 q 151 299 244 342 q 0 413 76 408 l 0 429 q 151 543 85 436 q 565 443 311 449 q 590 490 575 467 q 418 629 517 568 q 225 714 314 694 q 233 797 233 768 q 233 805 233 800 q 233 811 233 810 q 196 906 233 853 q 210 915 204 915 q 241 898 206 915 q 315 881 276 881 l 400 889 q 543 617 418 785 q 624 526 610 526 q 643 534 624 526 q 672 543 663 542 q 574 960 672 769 q 688 1114 685 1033 l 704 1114 q 821 960 713 1024 q 774 865 786 904 q 747 764 763 833 q 728 647 726 678 q 723 622 728 640 q 718 601 718 604 l 718 546 q 751 536 740 540 q 759 531 754 536 q 768 526 764 526 q 801 558 774 526 q 842 608 829 590 q 942 761 917 714 q 992 889 978 824 l 1076 881 q 1183 915 1129 881 q 1190 910 1185 914 q 1196 906 1194 907 q 1158 792 1158 854 q 1167 714 1158 767 q 976 631 1082 696 q 801 490 878 569 q 824 443 819 475 l 879 443 q 1069 476 940 443 q 1240 543 1207 513 q 1304 469 1265 501 q 1392 429 1350 431 l 1392 413 z "},"g":{"ha":1536,"x_min":0,"x_max":1515,"o":"m 510 -274 l 0 -274 l 0 504 l 256 764 l 510 504 l 510 -274 m 1515 -274 l 647 -274 l 647 421 l 1515 421 l 1515 -274 m 1488 558 l 660 558 l 388 831 l 388 1114 l 575 1114 l 575 929 l 936 929 l 936 1114 l 1122 1114 l 1122 931 l 1488 558 z "},"h":{"ha":1481,"x_min":0,"x_max":1442,"o":"m 632 -146 q 599 -239 632 -203 q 514 -275 567 -275 q 392 -149 417 -275 q 332 -162 358 -162 l 322 -162 q 242 -131 278 -162 q 206 -51 206 -100 q 226 10 206 -26 q 275 60 247 46 q 416 104 297 71 q 546 138 535 138 l 558 138 q 596 10 578 74 q 632 -146 632 -118 m 400 418 q 299 318 360 385 q 211 229 239 251 q 119 193 165 193 q 35 224 71 193 q 0 306 0 256 q 68 418 0 365 q 0 529 0 464 q 34 608 0 574 q 117 643 68 643 q 252 568 178 643 q 400 418 326 493 m 1236 -51 q 1201 -133 1236 -104 q 1119 -162 1167 -162 q 1083 -158 1101 -162 q 1051 -149 1074 -154 q 1044 -158 1046 -149 q 1008 -244 1042 -214 q 932 -275 975 -275 q 844 -237 878 -275 q 810 -146 810 -200 l 883 138 l 896 138 q 1014 106 888 138 q 1154 65 1131 76 q 1236 -51 1236 26 m 832 417 q 800 337 832 365 q 721 308 768 308 q 640 340 671 308 q 608 418 608 372 q 642 498 608 465 q 721 531 675 531 q 803 494 769 531 q 832 417 832 461 m 632 985 q 625 932 632 958 q 558 699 582 776 q 507 711 543 703 q 354 751 456 726 q 217 844 243 771 q 206 886 206 874 q 241 968 206 935 q 321 1001 276 1001 q 392 981 350 1001 q 514 1114 414 1114 q 598 1075 564 1114 q 632 985 632 1036 m 1442 306 q 1408 225 1442 254 q 1325 196 1374 196 q 1192 265 1263 196 q 1042 418 1117 342 q 1138 514 1078 447 q 1228 604 1199 581 q 1322 643 1276 643 q 1407 612 1372 643 q 1442 529 1442 581 q 1374 418 1442 475 q 1442 306 1442 367 m 1236 888 q 1211 815 1236 850 q 1135 761 1182 774 q 883 699 1050 740 q 846 825 864 763 q 808 982 808 953 q 844 1073 808 1032 q 929 1114 879 1114 q 1010 1076 976 1114 q 1050 985 1043 1039 q 1121 1001 1103 1001 q 1201 968 1165 1001 q 1236 888 1236 935 z "},"i":{"ha":1408,"x_min":0,"x_max":1389,"o":"m 513 190 q 454 81 513 135 q 349 28 396 28 q 303 72 303 28 q 361 178 303 119 q 468 238 419 238 q 513 190 513 238 m 790 -157 q 694 -275 790 -275 q 597 -156 597 -275 q 632 -15 597 -99 q 693 101 660 54 q 757 -14 726 65 q 790 -157 790 -99 m 379 418 q 119 322 232 322 q 0 418 0 322 q 121 515 0 515 q 257 482 172 515 q 379 418 335 451 m 1085 74 q 1040 28 1085 28 q 931 85 986 28 q 875 193 875 142 q 921 238 875 238 q 1029 178 974 238 q 1085 74 1085 119 m 793 418 q 765 347 793 375 q 694 319 736 319 q 622 348 650 319 q 594 418 594 376 q 624 488 594 457 q 694 518 654 518 q 765 488 738 518 q 793 418 793 457 m 513 644 q 467 600 513 600 q 358 657 414 600 q 303 764 303 714 q 347 810 303 810 q 453 752 394 810 q 513 644 513 694 m 790 993 q 763 865 790 940 q 696 733 735 790 q 628 860 660 779 q 597 992 597 940 q 619 1074 597 1040 q 694 1114 644 1114 q 771 1071 746 1114 q 790 993 790 1039 m 1389 418 q 1269 322 1389 322 q 1008 418 1157 322 q 1129 482 1043 449 q 1268 515 1215 515 q 1389 418 1389 515 m 1085 763 q 1028 656 1085 711 q 922 600 972 600 q 875 643 875 600 q 935 752 875 694 q 1042 810 994 810 q 1085 763 1085 810 z "},"j":{"ha":1457,"x_min":0,"x_max":1432,"o":"m 649 -75 q 584 -212 649 -150 q 447 -275 519 -275 q 310 -219 361 -275 q 258 -74 258 -162 q 264 -17 258 -46 q 244 -15 257 -15 q 217 -17 233 -15 q 199 -18 200 -18 q 55 33 110 -18 q 0 169 0 85 q 126 353 0 293 q 194 371 165 371 l 649 371 l 649 -75 m 649 465 l 197 465 q 147 474 178 465 q 39 553 82 494 q 0 665 0 607 q 58 803 0 749 q 197 857 117 857 q 258 850 211 857 l 261 853 q 259 886 261 863 q 257 914 257 910 q 310 1056 257 997 q 447 1114 364 1114 q 585 1047 522 1114 q 649 911 649 979 l 649 465 m 1432 169 q 1369 28 1432 78 q 1233 -18 1315 -18 q 1174 -15 1207 -18 l 1171 -17 q 1174 -51 1172 -28 q 1175 -78 1175 -74 q 1122 -219 1175 -162 q 986 -275 1069 -275 q 844 -210 904 -275 q 783 -65 783 -146 l 783 371 l 1238 371 q 1306 353 1267 371 q 1432 169 1432 293 m 1432 667 q 1285 474 1432 532 q 1235 465 1261 465 l 783 465 l 783 907 q 797 964 783 922 q 874 1073 819 1032 q 986 1114 928 1114 q 1122 1056 1067 1114 q 1176 914 1176 999 q 1169 853 1176 883 q 1174 853 1172 853 q 1210 855 1186 853 q 1235 857 1233 857 q 1376 803 1321 857 q 1432 667 1432 749 z "},"k":{"ha":1417,"x_min":0,"x_max":1389,"o":"m 1235 418 q 1093 392 1183 413 q 1028 372 1071 385 q 946 335 997 364 q 756 125 817 265 q 693 -119 719 42 q 669 4 686 -76 q 608 175 642 114 q 471 319 560 261 q 317 387 410 358 q 150 418 224 415 q 419 485 281 422 q 625 694 557 549 q 693 951 669 790 q 760 697 718 786 q 968 485 828 550 q 1235 418 1100 424 m 1318 418 q 1135 856 1318 672 q 694 1040 951 1040 q 256 858 438 1040 q 74 418 74 675 q 253 -20 74 161 q 694 -201 433 -201 q 1134 -21 950 -201 q 1318 418 1318 160 m 1389 418 q 1185 -72 1389 131 q 694 -275 981 -275 q 203 -71 406 -275 q 0 418 0 133 q 205 909 0 704 q 694 1114 410 1114 q 1185 908 982 1114 q 1389 418 1389 701 z "},"l":{"ha":1408,"x_min":0,"x_max":1388,"o":"m 1388 336 l 889 336 l 1244 -15 l 1129 -128 l 776 224 l 776 -275 l 613 -275 l 613 224 l 263 -128 l 144 -15 l 501 339 l 0 339 l 0 503 l 496 503 l 147 851 l 260 964 l 614 611 l 614 1113 l 778 1113 l 778 615 l 1126 964 l 1244 851 l 889 500 l 1388 500 l 1388 336 z "},"m":{"ha":1389,"x_min":0,"x_max":1250,"o":"m 1250 3 q 697 -275 1031 -275 q 203 -73 406 -275 q 0 418 0 129 q 221 925 0 722 q 693 1113 425 1113 q 953 1060 824 1113 q 1181 911 1083 1008 q 1050 965 1139 944 q 904 985 971 985 q 511 820 675 985 q 347 431 347 656 q 514 39 347 200 q 897 -119 675 -119 q 1250 3 1103 -119 z "},"n":{"ha":1389,"x_min":0,"x_max":938,"o":"m 824 540 l 551 540 l 551 -164 l 388 -164 l 388 539 l 111 539 l 111 697 l 388 697 l 388 1000 l 550 1000 l 550 699 l 824 699 l 824 540 m 888 478 l 888 760 l 611 760 l 611 1063 l 326 1063 l 326 758 l 47 758 l 47 476 l 326 476 l 326 -225 l 613 -225 l 613 478 l 888 478 m 938 431 l 660 431 l 660 -275 l 276 -275 l 276 429 l 0 429 l 0 811 l 276 811 l 276 1113 l 658 1113 l 658 811 l 938 811 l 938 431 z "},"o":{"ha":2231,"x_min":4,"x_max":2207,"o":"m 913 -174 l 4 767 q 224 721 114 743 q 407 638 356 692 q 594 386 501 538 q 753 107 649 300 q 913 -174 854 -79 m 1067 -274 l 511 626 l 550 626 l 1067 549 l 1067 -274 m 475 851 q 431 718 449 763 l 14 846 l 290 985 l 475 851 m 1067 632 l 511 700 q 549 835 522 746 l 590 835 l 1067 767 l 1067 632 m 1706 626 l 1150 -268 l 1150 549 l 1667 626 l 1706 626 m 2207 767 l 1308 -174 q 1468 111 1365 -82 q 1628 397 1575 310 q 1810 638 1721 549 q 1926 706 1853 682 q 2069 737 1972 721 q 2207 767 2165 753 m 1836 1018 q 1772 963 1826 1013 q 1699 918 1732 925 q 1336 861 1579 889 q 1108 839 1143 839 q 867 864 1076 839 q 517 918 614 892 q 457 960 506 921 q 381 1018 393 1010 q 468 1060 388 1021 q 558 1092 526 1088 q 1067 1111 717 1111 l 1108 1111 q 1113 1111 1107 1111 q 1126 1111 1119 1111 q 1658 1092 1490 1111 q 1836 1018 1718 1067 m 1706 700 l 1150 632 l 1150 767 l 1626 835 l 1668 835 q 1706 700 1679 790 m 2203 846 l 1783 718 q 1742 851 1767 767 l 1926 985 l 2203 846 z "},"p":{"ha":1410,"x_min":0,"x_max":1389,"o":"m 1000 374 q 947 569 1000 461 q 829 766 914 638 q 714 954 744 894 q 688 1031 688 1008 q 688 1035 688 1033 q 579 819 665 951 q 440 599 456 628 q 371 374 371 471 q 461 153 371 243 q 686 63 551 63 q 908 151 815 63 q 1000 374 1000 239 m 1389 418 q 1185 -72 1389 131 q 694 -275 981 -275 q 203 -71 406 -275 q 0 418 0 133 q 205 909 0 704 q 694 1114 410 1114 q 1185 908 982 1114 q 1389 418 1389 701 z "},"q":{"ha":1410,"x_min":0,"x_max":1389,"o":"m 788 99 l 581 -264 l 557 -264 q 500 -247 547 -264 q 451 -231 476 -239 q 240 -104 356 -204 q 76 99 124 -4 l 788 99 m 458 179 l 43 179 q 0 415 0 276 q 110 790 0 618 l 458 179 m 1226 -28 q 990 -208 1144 -135 q 735 -275 850 -275 l 667 -275 l 1018 338 l 1226 -28 m 725 1113 l 367 499 l 161 863 q 407 1047 258 978 q 668 1113 544 1113 l 725 1113 m 1389 421 q 1361 232 1389 333 q 1276 46 1331 114 l 924 660 l 1346 660 q 1389 421 1389 518 m 1308 740 l 604 740 l 808 1099 l 828 1099 q 892 1083 813 1099 q 1119 965 999 1061 q 1308 740 1246 864 z "},"r":{"ha":1421,"x_min":0,"x_max":1392,"o":"m 656 -275 l 0 381 l 418 381 q 539 354 472 381 q 626 265 593 333 q 656 147 656 207 l 656 -275 m 656 689 q 597 529 656 594 q 436 458 535 458 l 3 458 l 656 1111 l 656 689 m 1392 381 l 736 -275 l 736 135 q 768 269 736 208 q 890 365 810 349 q 974 381 967 381 l 1392 381 m 1389 458 l 950 458 q 867 475 911 458 q 793 524 818 494 q 736 707 736 592 l 736 1111 l 1389 458 z "},"s":{"ha":1432,"x_min":0,"x_max":1408,"o":"m 1408 335 q 1316 111 1408 201 q 1092 21 1224 21 q 718 286 856 21 q 715 267 715 282 q 715 256 715 263 q 717 249 717 250 q 818 -81 717 44 q 1175 -229 939 -226 q 1185 -275 1179 -244 l 219 -275 q 228 -229 222 -258 q 235 -229 231 -229 q 478 -174 378 -229 q 643 -3 586 -114 q 693 199 693 93 q 693 207 693 203 l 692 286 q 319 18 544 18 q 91 110 182 18 q 0 335 0 203 q 79 557 0 460 q 268 654 158 654 q 369 633 311 654 q 461 596 415 614 q 404 703 414 681 q 385 804 385 749 q 479 1026 385 938 q 704 1114 574 1114 q 928 1022 835 1114 q 1021 807 1021 929 q 949 596 1021 710 l 949 593 q 1129 654 1044 654 q 1340 550 1261 654 q 1408 335 1408 458 z "},"t":{"ha":1389,"x_min":0,"x_max":1163,"o":"m 1038 -186 q 690 -275 865 -275 q 203 -71 406 -275 q 0 417 0 133 q 205 908 0 704 q 697 1113 410 1113 q 1038 1021 872 1113 q 911 1035 956 1035 q 472 853 653 1035 q 292 418 292 672 q 472 -17 292 163 q 904 -197 651 -197 q 1006 -192 964 -197 q 1015 -189 1007 -192 q 1026 -186 1024 -186 l 1038 -186 m 1163 503 l 1001 381 l 1065 193 l 904 306 l 746 193 l 810 381 l 649 503 l 843 503 l 906 683 l 965 503 l 1163 503 z "},"u":{"ha":1389,"x_min":0,"x_max":1383,"o":"m 1383 418 q 1185 381 1285 408 q 801 107 915 308 q 690 -267 724 -35 q 603 60 674 -83 q 314 342 504 263 q 199 381 254 365 q 0 418 108 404 q 213 457 99 424 q 360 517 288 479 q 611 790 531 608 q 693 1103 658 894 q 769 790 722 900 q 1018 519 849 613 q 1072 490 1036 508 q 1199 453 1115 478 q 1300 428 1251 435 q 1383 418 1342 424 z "},"v":{"ha":1618,"x_min":0,"x_max":1593,"o":"m 1593 635 q 1440 186 1593 410 q 1014 -186 1281 -44 q 911 -232 992 -197 q 796 -275 814 -275 q 679 -232 779 -275 q 576 -186 594 -194 q 150 186 307 -43 q 0 626 0 404 q 56 858 0 753 q 261 1060 124 988 q 449 1114 365 1114 q 796 922 646 1114 q 1144 1114 943 1114 q 1379 1032 1257 1114 q 1557 824 1508 944 q 1593 635 1593 731 z "},"w":{"ha":1479,"x_min":0,"x_max":1457,"o":"m 1457 233 q 1433 151 1457 197 q 1393 63 1401 89 q 1204 -106 1342 -106 q 906 58 1032 -106 q 826 193 894 74 q 726 319 775 286 q 726 318 726 319 q 729 314 726 318 q 732 307 732 310 l 732 226 q 728 207 732 222 q 724 185 724 192 q 701 -7 701 13 q 708 -75 701 -54 q 744 -157 714 -96 q 783 -204 764 -181 q 821 -258 821 -250 q 806 -275 821 -275 q 731 -217 776 -275 q 685 -146 696 -172 q 658 -60 665 -101 q 654 -7 657 -42 l 699 253 q 699 256 699 254 q 681 290 699 290 q 664 279 668 290 q 621 156 642 217 q 564 24 592 75 q 464 -114 519 -57 q 325 -189 390 -189 q 188 -128 249 -189 q 121 -31 175 -115 q 22 74 93 -4 q 11 104 18 85 q 0 160 0 125 q 53 295 0 233 q 194 390 106 357 q 314 403 229 403 q 480 383 369 403 q 640 364 590 364 q 642 369 642 364 q 590 406 642 390 q 469 432 531 422 q 369 449 376 447 q 168 533 261 471 q 50 713 50 614 q 75 801 50 763 q 149 881 106 847 q 224 951 179 903 q 294 1017 264 997 q 388 1049 342 1049 q 514 989 446 1049 q 635 822 599 915 q 674 651 658 764 q 710 465 690 526 q 728 529 728 497 l 728 657 q 796 938 728 788 q 986 1114 876 1114 q 1069 1097 1021 1114 q 1118 1060 1093 1090 q 1218 963 1160 1011 q 1300 893 1290 903 q 1324 844 1314 879 q 1335 783 1335 810 q 1172 565 1335 675 q 939 458 1036 474 q 879 443 919 451 q 817 434 849 439 q 764 408 785 429 q 806 403 789 403 q 888 414 797 403 q 1034 434 960 424 q 1164 444 1108 444 q 1363 386 1275 444 q 1457 233 1457 324 z "},"x":{"ha":1546,"x_min":0,"x_max":1529,"o":"m 736 -68 q 728 -99 736 -74 q 497 -275 669 -275 q 329 -203 397 -275 q 263 -39 263 -135 q 278 40 263 -6 q 321 115 294 86 q 378 164 347 144 q 651 318 636 318 q 682 296 650 318 q 736 274 714 274 l 736 -68 m 624 365 q 442 261 615 361 q 296 188 332 197 q 232 185 279 185 q 67 253 135 185 q 0 418 0 322 q 69 586 0 517 q 239 656 139 656 q 363 618 289 656 q 496 540 429 579 q 624 467 538 517 l 624 365 m 1267 -40 q 1196 -208 1267 -140 q 1031 -275 1125 -275 q 865 -210 938 -275 q 793 -54 793 -146 l 793 274 q 849 296 815 274 q 881 318 883 318 q 967 269 896 318 q 1075 207 1003 243 q 1171 150 1142 172 q 1244 58 1218 113 q 1267 -40 1267 10 m 736 565 q 653 518 715 558 q 538 583 633 518 q 399 658 468 621 q 285 778 321 704 q 263 875 263 825 q 333 1042 263 969 q 501 1114 404 1114 q 657 1051 583 1114 q 736 892 736 983 l 736 565 m 1529 418 q 1460 252 1529 319 q 1297 185 1392 185 q 1289 183 1296 185 q 1276 183 1282 183 q 1225 192 1242 183 q 1064 276 1158 221 q 906 369 985 322 l 906 468 q 1110 588 908 469 q 1299 656 1225 656 q 1462 584 1394 656 q 1529 418 1529 513 m 1267 881 q 1122 657 1267 732 q 878 515 1042 610 q 793 565 864 533 l 793 900 q 831 999 793 940 q 906 1079 868 1058 q 1032 1114 974 1114 q 1197 1042 1126 1114 q 1267 881 1267 971 z "},"y":{"ha":1389,"x_min":0,"x_max":1317,"o":"m 1317 406 q 1197 301 1265 358 q 1076 206 1138 254 q 967 79 967 113 q 982 40 967 67 q 1006 3 994 22 l 701 49 l 679 49 l 679 -275 l 638 -275 l 646 43 q 639 46 643 46 q 632 46 642 46 l 315 0 q 339 42 318 7 q 353 81 353 65 q 285 169 353 113 q 197 238 240 203 q 0 403 128 301 q 7 401 3 401 q 59 423 32 401 q 86 471 86 444 q 86 476 86 474 l 40 658 q 108 644 54 657 q 182 632 158 632 q 233 660 214 632 q 274 721 253 689 q 364 618 279 715 q 442 554 419 554 q 464 578 464 554 q 463 586 464 582 l 404 943 q 506 899 463 899 q 567 940 540 899 q 607 1015 586 978 q 661 1111 624 1047 q 733 978 686 1065 q 754 940 743 960 q 785 904 765 921 q 803 900 789 900 q 864 910 842 900 q 914 946 881 918 l 856 589 q 856 581 856 583 q 881 557 856 557 q 967 635 897 557 q 1043 724 1004 679 q 1084 663 1064 692 q 1142 635 1104 635 q 1213 648 1167 635 q 1264 661 1260 661 l 1278 661 l 1232 479 q 1256 427 1232 450 q 1310 404 1281 404 q 1317 406 1314 404 z "},"z":{"ha":1407,"x_min":0,"x_max":1383,"o":"m 1383 229 l 1201 -86 l 874 100 l 874 -275 l 508 -275 l 508 99 q 506 100 508 100 l 179 -86 l 0 229 l 328 418 l 0 607 l 179 922 l 508 732 l 508 1114 l 874 1114 l 874 735 l 1201 922 l 1383 607 l 1053 418 l 1383 229 z "}}}
